/* XPM */
static char * hide_prelight_xpm[] = {
"24 20 5 1",
" 	c None",
".	c #1d2021",
"+	c #EBDBB2",
"@	c #1d2021",
"@@@@@@@@@@@@@@@@@@@@@@@@",
"........................",
"........................",
"........................",
"........................",
"........................",
"........................",
"........................",
"........................",
"........................",
"........................",
"........++++++++........",
"........++++++++........",
"........................",
"........................",
"........................",
"........................",
"........................",
"........................",
"........................",
"........................",
"........................",
"........................",
"........................",
"........................"};
